/videos/e3a415c2-e8f6-79cd-5ce7-416e169b5a85/hls1/main/0.ts

{"Protocol":0,"Id":"e3a415c2e8f679cd5ce7416e169b5a85","Path":"/data/movies/To Me, the One Who Loved You (2022)/Kimi.wo.Aishita.Hitori.no.Boku.e.1080p.BDRip.10.bits.DD.x265-EMBER.mkv","EncoderPath":null,"EncoderProtocol":null,"Type":0,"Container":"mkv,webm","Size":1763898752,"Name":"Kimi.wo.Aishita.Hitori.no.Boku.e.1080p.BDRip.10.bits.DD.x265-EMBER","IsRemote":false,"ETag":"fbffa7e10154c3523e01ef685689cf88","RunTimeTicks":59199361024,"ReadAtNativeFramerate":false,"IgnoreDts":false,"IgnoreIndex":false,"GenPtsInput":false,"SupportsTranscoding":true,"SupportsDirectStream":true,"SupportsDirectPlay":true,"IsInfiniteStream":false,"RequiresOpening":false,"OpenToken":null,"RequiresClosing":false,"LiveStreamId":null,"BufferMs":null,"RequiresLooping":false,"SupportsProbing":true,"VideoType":0,"IsoType":null,"Video3DFormat":null,"MediaStreams":[{"Codec":"hevc","CodecTag":null,"Language":null,"ColorRange":null,"ColorSpace":"bt709","ColorTransfer":"bt709","ColorPrimaries":"bt709","DvVersionMajor":null,"DvVersionMinor":null,"DvProfile":null,"DvLevel":null,"RpuPresentFlag":null,"ElPresentFlag":null,"BlPresentFlag":null,"DvBlSignalCompatibilityId":null,"Comment":null,"TimeBase":"1/1000","CodecTimeBase":null,"Title":"Presented By EMBER","VideoRange":"SDR","VideoRangeType":"SDR","VideoDoViTitle":null,"LocalizedUndefined":null,"LocalizedDefault":null,"LocalizedForced":null,"LocalizedExternal":null,"DisplayTitle":"Presented By EMBER - 1080p - HEVC - SDR","NalLengthSize":null,"IsInterlaced":false,"IsAVC":null,"ChannelLayout":null,"BitRate":2383672,"BitDepth":10,"RefFrames":1,"PacketLength":null,"Channels":null,"SampleRate":null,"IsDefault":true,"IsForced":false,"Height":1080,"Width":1920,"AverageFrameRate":23.976025,"RealFrameRate":23.976025,"Profile":"Main 10","Type":1,"AspectRatio":"16:9","Index":0,"Score":null,"IsExternal":false,"DeliveryMethod":null,"DeliveryUrl":null,"IsExternalUrl":null,"IsTextSubtitleStream":false,"SupportsExternalStream":false,"Path":null,"PixelFormat":"yuv420p10le","Level":120,"IsAnamorphic":null},{"Codec":"ac3","CodecTag":null,"Language":"jpn","ColorRange":null,"ColorSpace":null,"ColorTransfer":null,"ColorPrimaries":null,"DvVersionMajor":null,"DvVersionMinor":null,"DvProfile":null,"DvLevel":null,"RpuPresentFlag":null,"ElPresentFlag":null,"BlPresentFlag":null,"DvBlSignalCompatibilityId":null,"Comment":null,"TimeBase":"1/1000","CodecTimeBase":null,"Title":null,"VideoRange":null,"VideoRangeType":null,"VideoDoViTitle":null,"LocalizedUndefined":null,"LocalizedDefault":null,"LocalizedForced":null,"LocalizedExternal":null,"DisplayTitle":"Japanese - Dolby Digital - 5.1 - Default","NalLengthSize":null,"IsInterlaced":false,"IsAVC":null,"ChannelLayout":"5.1","BitRate":448000,"BitDepth":null,"RefFrames":null,"PacketLength":null,"Channels":6,"SampleRate":48000,"IsDefault":true,"IsForced":false,"Height":null,"Width":null,"AverageFrameRate":null,"RealFrameRate":null,"Profile":null,"Type":0,"AspectRatio":null,"Index":1,"Score":null,"IsExternal":false,"DeliveryMethod":null,"DeliveryUrl":null,"IsExternalUrl":null,"IsTextSubtitleStream":false,"SupportsExternalStream":false,"Path":null,"PixelFormat":null,"Level":0,"IsAnamorphic":null},{"Codec":"ass","CodecTag":null,"Language":"eng","ColorRange":null,"ColorSpace":null,"ColorTransfer":null,"ColorPrimaries":null,"DvVersionMajor":null,"DvVersionMinor":null,"DvProfile":null,"DvLevel":null,"RpuPresentFlag":null,"ElPresentFlag":null,"BlPresentFlag":null,"DvBlSignalCompatibilityId":null,"Comment":null,"TimeBase":"1/1000","CodecTimeBase":null,"Title":null,"VideoRange":null,"VideoRangeType":null,"VideoDoViTitle":null,"LocalizedUndefined":"Undefined","LocalizedDefault":"Default","LocalizedForced":"Forced","LocalizedExternal":"External","DisplayTitle":"English - Default - ASS","NalLengthSize":null,"IsInterlaced":false,"IsAVC":null,"ChannelLayout":null,"BitRate":null,"BitDepth":null,"RefFrames":null,"PacketLength":null,"Channels":null,"SampleRate":null,"IsDefault":true,"IsForced":false,"Height":null,"Width":null,"AverageFrameRate":null,"RealFrameRate":null,"Profile":null,"Type":2,"AspectRatio":null,"Index":2,"Score":null,"IsExternal":false,"DeliveryMethod":null,"DeliveryUrl":null,"IsExternalUrl":null,"IsTextSubtitleStream":true,"SupportsExternalStream":true,"Path":null,"PixelFormat":null,"Level":0,"IsAnamorphic":null}],"MediaAttachments":[{"Codec":null,"CodecTag":"[0][0][0][0]","Comment":null,"Index":3,"FileName":"CONSOLAB.TTF","MimeType":"font/ttf","DeliveryUrl":null},{"Codec":null,"CodecTag":"[0][0][0][0]","Comment":null,"Index":4,"FileName":"Roboto-Medium.ttf","MimeType":"font/ttf","DeliveryUrl":null},{"Codec":null,"CodecTag":"[0][0][0][0]","Comment":null,"Index":5,"FileName":"Roboto-MediumItalic.ttf","MimeType":"font/ttf","DeliveryUrl":null},{"Codec":null,"CodecTag":"[0][0][0][0]","Comment":null,"Index":6,"FileName":"times.ttf","MimeType":"font/ttf","DeliveryUrl":null},{"Codec":null,"CodecTag":"[0][0][0][0]","Comment":null,"Index":7,"FileName":"timesbd.ttf","MimeType":"font/ttf","DeliveryUrl":null},{"Codec":null,"CodecTag":"[0][0][0][0]","Comment":null,"Index":8,"FileName":"trebuc.ttf","MimeType":"font/ttf","DeliveryUrl":null},{"Codec":null,"CodecTag":"[0][0][0][0]","Comment":null,"Index":9,"FileName":"trebucbd.ttf","MimeType":"font/ttf","DeliveryUrl":null},{"Codec":null,"CodecTag":"[0][0][0][0]","Comment":null,"Index":10,"FileName":"verdana.ttf","MimeType":"font/ttf","DeliveryUrl":null},{"Codec":null,"CodecTag":"[0][0][0][0]","Comment":null,"Index":11,"FileName":"verdanab.ttf","MimeType":"font/ttf","DeliveryUrl":null},{"Codec":null,"CodecTag":"[0][0][0][0]","Comment":null,"Index":12,"FileName":"arial.ttf","MimeType":"font/ttf","DeliveryUrl":null},{"Codec":null,"CodecTag":"[0][0][0][0]","Comment":null,"Index":13,"FileName":"arialbd.ttf","MimeType":"font/ttf","DeliveryUrl":null},{"Codec":null,"CodecTag":"[0][0][0][0]","Comment":null,"Index":14,"FileName":"comic.ttf","MimeType":"font/ttf","DeliveryUrl":null},{"Codec":null,"CodecTag":"[0][0][0][0]","Comment":null,"Index":15,"FileName":"comicbd.ttf","MimeType":"font/ttf","DeliveryUrl":null},{"Codec":null,"CodecTag":"[0][0][0][0]","Comment":null,"Index":16,"FileName":"CONSOLA.TTF","MimeType":"font/ttf","DeliveryUrl":null}],"Formats":[],"Bitrate":2831672,"Timestamp":null,"RequiredHttpHeaders":{},"TranscodingUrl":null,"TranscodingSubProtocol":null,"TranscodingContainer":null,"AnalyzeDurationMs":null,"DefaultAudioStreamIndex":null,"DefaultSubtitleStreamIndex":null}

/usr/lib/jellyfin-ffmpeg/ffmpeg -analyzeduration 200M -f matroska,webm -autorotate 0 -i file:"/data/movies/To Me, the One Who Loved You (2022)/Kimi.wo.Aishita.Hitori.no.Boku.e.1080p.BDRip.10.bits.DD.x265-EMBER.mkv" -map_metadata -1 -map_chapters -1 -threads 0 -map 0:0 -map 0:1 -map -0:s -codec:v:0 libx264 -preset veryfast -crf 23 -maxrate 4767344 -bufsize 9534688 -x264opts:0 subme=0:me_range=4:rc_lookahead=10:me=dia:no_chroma_me:8x8dct=0:partitions=none -force_key_frames:0 "expr:gte(t,0+n_forced*3)" -sc_threshold:v:0 0 -vf "setparams=color_primaries=bt709:color_trc=bt709:colorspace=bt709,scale=trunc(min(max(iw\,ih*a)\,min(1920\,1080*a))/2)*2:trunc(min(max(iw/a\,ih)\,min(1920/a\,1080))/2)*2,format=yuv420p" -codec:a:0 copy -copyts -avoid_negative_ts disabled -max_muxing_queue_size 2048 -f hls -max_delay 5000000 -hls_time 3 -hls_segment_type mpegts -start_number 0 -hls_segment_filename "/data/transcodes/e227f2caf597d749341da7857d0db70f%d.ts" -hls_playlist_type vod -hls_list_size 0 -y "/data/transcodes/e227f2caf597d749341da7857d0db70f.m3u8"


ffmpeg version 5.1.3-Jellyfin Copyright (c) 2000-2022 the FFmpeg developers
  built with gcc 11 (Ubuntu 11.3.0-1ubuntu1~22.04.1)
  configuration: --prefix=/usr/lib/jellyfin-ffmpeg --target-os=linux --extra-libs=-lfftw3f --extra-version=Jellyfin --disable-doc --disable-ffplay --disable-ptx-compression --disable-static --disable-libxcb --disable-sdl2 --disable-xlib --enable-lto --enable-gpl --enable-version3 --enable-shared --enable-gmp --enable-gnutls --enable-chromaprint --enable-libdrm --enable-libass --enable-libfreetype --enable-libfribidi --enable-libfontconfig --enable-libbluray --enable-libmp3lame --enable-libopus --enable-libtheora --enable-libvorbis --enable-libopenmpt --enable-libdav1d --enable-libwebp --enable-libvpx --enable-libx264 --enable-libx265 --enable-libzvbi --enable-libzimg --enable-libfdk-aac --arch=amd64 --enable-libsvtav1 --enable-libshaderc --enable-libplacebo --enable-vulkan --enable-opencl --enable-vaapi --enable-amf --enable-libmfx --enable-ffnvcodec --enable-cuda --enable-cuda-llvm --enable-cuvid --enable-nvdec --enable-nvenc
  libavutil      57. 28.100 / 57. 28.100
  libavcodec     59. 37.100 / 59. 37.100
  libavformat    59. 27.100 / 59. 27.100
  libavdevice    59.  7.100 / 59.  7.100
  libavfilter     8. 44.100 /  8. 44.100
  libswscale      6.  7.100 /  6.  7.100
  libswresample   4.  7.100 /  4.  7.100
  libpostproc    56.  6.100 / 56.  6.100
[matroska,webm @ 0x55ab38bd4c80] Could not find codec parameters for stream 3 (Attachment: none): unknown codec
Consider increasing the value for the 'analyzeduration' (200000000) and 'probesize' (5000000) options
[matroska,webm @ 0x55ab38bd4c80] Could not find codec parameters for stream 4 (Attachment: none): unknown codec
Consider increasing the value for the 'analyzeduration' (200000000) and 'probesize' (5000000) options
[matroska,webm @ 0x55ab38bd4c80] Could not find codec parameters for stream 5 (Attachment: none): unknown codec
Consider increasing the value for the 'analyzeduration' (200000000) and 'probesize' (5000000) options
[matroska,webm @ 0x55ab38bd4c80] Could not find codec parameters for stream 6 (Attachment: none): unknown codec
Consider increasing the value for the 'analyzeduration' (200000000) and 'probesize' (5000000) options
[matroska,webm @ 0x55ab38bd4c80] Could not find codec parameters for stream 7 (Attachment: none): unknown codec
Consider increasing the value for the 'analyzeduration' (200000000) and 'probesize' (5000000) options
[matroska,webm @ 0x55ab38bd4c80] Could not find codec parameters for stream 8 (Attachment: none): unknown codec
Consider increasing the value for the 'analyzeduration' (200000000) and 'probesize' (5000000) options
[matroska,webm @ 0x55ab38bd4c80] Could not find codec parameters for stream 9 (Attachment: none): unknown codec
Consider increasing the value for the 'analyzeduration' (200000000) and 'probesize' (5000000) options
[matroska,webm @ 0x55ab38bd4c80] Could not find codec parameters for stream 10 (Attachment: none): unknown codec
Consider increasing the value for the 'analyzeduration' (200000000) and 'probesize' (5000000) options
[matroska,webm @ 0x55ab38bd4c80] Could not find codec parameters for stream 11 (Attachment: none): unknown codec
Consider increasing the value for the 'analyzeduration' (200000000) and 'probesize' (5000000) options
[matroska,webm @ 0x55ab38bd4c80] Could not find codec parameters for stream 12 (Attachment: none): unknown codec
Consider increasing the value for the 'analyzeduration' (200000000) and 'probesize' (5000000) options
[matroska,webm @ 0x55ab38bd4c80] Could not find codec parameters for stream 13 (Attachment: none): unknown codec
Consider increasing the value for the 'analyzeduration' (200000000) and 'probesize' (5000000) options
[matroska,webm @ 0x55ab38bd4c80] Could not find codec parameters for stream 14 (Attachment: none): unknown codec
Consider increasing the value for the 'analyzeduration' (200000000) and 'probesize' (5000000) options
[matroska,webm @ 0x55ab38bd4c80] Could not find codec parameters for stream 15 (Attachment: none): unknown codec
Consider increasing the value for the 'analyzeduration' (200000000) and 'probesize' (5000000) options
[matroska,webm @ 0x55ab38bd4c80] Could not find codec parameters for stream 16 (Attachment: none): unknown codec
Consider increasing the value for the 'analyzeduration' (200000000) and 'probesize' (5000000) options
Input #0, matroska,webm, from 'file:/data/movies/To Me, the One Who Loved You (2022)/Kimi.wo.Aishita.Hitori.no.Boku.e.1080p.BDRip.10.bits.DD.x265-EMBER.mkv':
  Metadata:
    title           : Kimi.wo.Aishita.Hitori.no.Boku.e.1080p.BDRip.10.bits.DD.x265-EMBER
    ENCODER         : Lavf60.3.100
  Duration: 01:38:39.94, start: 0.000000, bitrate: 2383 kb/s
  Chapters:
    Chapter #0:0: start 0.000000, end 670.252911
      Metadata:
        title           : Chapter 01
    Chapter #0:1: start 670.252911, end 1251.625356
      Metadata:
        title           : Chapter 02
    Chapter #0:2: start 1251.625356, end 1937.018400
      Metadata:
        title           : Chapter 03
    Chapter #0:3: start 1937.018400, end 2506.587400
      Metadata:
        title           : Chapter 04
    Chapter #0:4: start 2506.587400, end 3010.507489
      Metadata:
        title           : Chapter 05
    Chapter #0:5: start 3010.507489, end 3556.094200
      Metadata:
        title           : Chapter 06
    Chapter #0:6: start 3556.094200, end 3951.739444
      Metadata:
        title           : Chapter 07
    Chapter #0:7: start 3951.739444, end 4749.995244
      Metadata:
        title           : Chapter 08
    Chapter #0:8: start 4749.995244, end 5679.173489
      Metadata:
        title           : Chapter 09
    Chapter #0:9: start 5679.173489, end 5919.936000
      Metadata:
        title           : Chapter 10
  Stream #0:0: Video: hevc (Main 10), yuv420p10le(tv, bt709), 1920x1080, SAR 1:1 DAR 16:9, 23.98 fps, 23.98 tbr, 1k tbn (default)
    Metadata:
      title           : Presented By EMBER
      BPS             : 1923495
      NUMBER_OF_FRAMES: 141936
      NUMBER_OF_BYTES : 1423366154
      _STATISTICS_WRITING_APP: mkvmerge v69.0.0 ('Day And Age') 64-bit
      _STATISTICS_WRITING_DATE_UTC: 2023-04-22 13:00:51
      _STATISTICS_TAGS: BPS DURATION NUMBER_OF_FRAMES NUMBER_OF_BYTES
      DURATION        : 01:38:39.913000000
  Stream #0:1(jpn): Audio: ac3, 48000 Hz, 5.1(side), fltp, 448 kb/s (default)
    Metadata:
      BPS             : 448000
      NUMBER_OF_FRAMES: 184998
      NUMBER_OF_BYTES : 331516416
      _STATISTICS_WRITING_APP: mkvmerge v69.0.0 ('Day And Age') 64-bit
      _STATISTICS_WRITING_DATE_UTC: 2023-04-22 13:00:51
      _STATISTICS_TAGS: BPS DURATION NUMBER_OF_FRAMES NUMBER_OF_BYTES
      DURATION        : 01:38:39.936000000
  Stream #0:2(eng): Subtitle: ass (default)
    Metadata:
      BPS             : 133
      NUMBER_OF_FRAMES: 1317
      NUMBER_OF_BYTES : 98060
      _STATISTICS_WRITING_APP: mkvmerge v69.0.0 ('Day And Age') 64-bit
      _STATISTICS_WRITING_DATE_UTC: 2023-04-22 13:00:51
      _STATISTICS_TAGS: BPS DURATION NUMBER_OF_FRAMES NUMBER_OF_BYTES
      DURATION        : 01:38:27.720000000
  Stream #0:3: Attachment: none
    Metadata:
      filename        : CONSOLAB.TTF
      mimetype        : font/ttf
  Stream #0:4: Attachment: none
    Metadata:
      filename        : Roboto-Medium.ttf
      mimetype        : font/ttf
  Stream #0:5: Attachment: none
    Metadata:
      filename        : Roboto-MediumItalic.ttf
      mimetype        : font/ttf
  Stream #0:6: Attachment: none
    Metadata:
      filename        : times.ttf
      mimetype        : font/ttf
  Stream #0:7: Attachment: none
    Metadata:
      filename        : timesbd.ttf
      mimetype        : font/ttf
  Stream #0:8: Attachment: none
    Metadata:
      filename        : trebuc.ttf
      mimetype        : font/ttf
  Stream #0:9: Attachment: none
    Metadata:
      filename        : trebucbd.ttf
      mimetype        : font/ttf
  Stream #0:10: Attachment: none
    Metadata:
      filename        : verdana.ttf
      mimetype        : font/ttf
  Stream #0:11: Attachment: none
    Metadata:
      filename        : verdanab.ttf
      mimetype        : font/ttf
  Stream #0:12: Attachment: none
    Metadata:
      filename        : arial.ttf
      mimetype        : font/ttf
  Stream #0:13: Attachment: none
    Metadata:
      filename        : arialbd.ttf
      mimetype        : font/ttf
  Stream #0:14: Attachment: none
    Metadata:
      filename        : comic.ttf
      mimetype        : font/ttf
  Stream #0:15: Attachment: none
    Metadata:
      filename        : comicbd.ttf
      mimetype        : font/ttf
  Stream #0:16: Attachment: none
    Metadata:
      filename        : CONSOLA.TTF
      mimetype        : font/ttf
Stream mapping:
  Stream #0:0 -> #0:0 (hevc (native) -> h264 (libx264))
  Stream #0:1 -> #0:1 (copy)
Press [q] to stop, [?] for help
[libx264 @ 0x55ab39286900] using SAR=1/1
[libx264 @ 0x55ab39286900] using cpu capabilities: MMX2 SSE2Fast SSSE3 SSE4.2 AVX FMA3 BMI2 AVX2
[libx264 @ 0x55ab39286900] profile Main, level 4.0, 4:2:0, 8-bit
[libx264 @ 0x55ab39286900] 264 - core 163 r3060 5db6aa6 - H.264/MPEG-4 AVC codec - Copyleft 2003-2021 - http://www.videolan.org/x264.html - options: cabac=1 ref=1 deblock=1:0:0 analyse=0x1:0 me=dia subme=0 psy=1 psy_rd=1.00:0.00 mixed_ref=0 me_range=4 chroma_me=0 trellis=0 8x8dct=0 cqm=0 deadzone=21,11 fast_pskip=1 chroma_qp_offset=0 threads=6 lookahead_threads=1 sliced_threads=0 nr=0 decimate=1 interlaced=0 bluray_compat=0 constrained_intra=0 bframes=3 b_pyramid=2 b_adapt=1 b_bias=0 direct=1 weightb=1 open_gop=0 weightp=1 keyint=250 keyint_min=23 scenecut=0 intra_refresh=0 rc_lookahead=10 rc=crf mbtree=1 crf=23.0 qcomp=0.60 qpmin=0 qpmax=69 qpstep=4 vbv_maxrate=4767 vbv_bufsize=9534 crf_max=0.0 nal_hrd=none filler=0 ip_ratio=1.40 aq=1:1.00
Output #0, hls, to '/data/transcodes/e227f2caf597d749341da7857d0db70f.m3u8':
  Metadata:
    encoder         : Lavf59.27.100
  Stream #0:0: Video: h264, yuv420p(tv, bt709, progressive), 1920x1080 [SAR 1:1 DAR 16:9], q=2-31, 23.98 fps, 90k tbn (default)
    Metadata:
      encoder         : Lavc59.37.100 libx264
    Side data:
      cpb: bitrate max/min/avg: 4767000/0/0 buffer size: 9534000 vbv_delay: N/A
  Stream #0:1: Audio: ac3, 48000 Hz, 5.1(side), fltp, 448 kb/s (default)
frame=    1 fps=0.0 q=0.0 size=N/A time=00:00:00.00 bitrate=N/A speed=   0x    
frame=   20 fps=0.0 q=0.0 size=N/A time=00:00:00.80 bitrate=N/A speed=1.32x    
frame=   46 fps= 41 q=28.0 size=N/A time=00:00:01.88 bitrate=N/A speed= 1.7x    
frame=   62 fps= 38 q=28.0 size=N/A time=00:00:02.56 bitrate=N/A speed=1.57x    
frame=   78 fps= 36 q=28.0 size=N/A time=00:00:03.23 bitrate=N/A speed= 1.5x    
[hls @ 0x55ab39285980] Opening '/data/transcodes/e227f2caf597d749341da7857d0db70f0.ts' for writing
frame=   94 fps= 34 q=28.0 size=N/A time=00:00:03.90 bitrate=N/A speed=1.43x    
frame=  109 fps= 33 q=28.0 size=N/A time=00:00:04.51 bitrate=N/A speed=1.36x    
frame=  124 fps= 32 q=28.0 size=N/A time=00:00:05.15 bitrate=N/A speed=1.35x    
frame=  138 fps= 32 q=28.0 size=N/A time=00:00:05.72 bitrate=N/A speed=1.33x    
frame=  155 fps= 32 q=28.0 size=N/A time=00:00:06.43 bitrate=N/A speed=1.33x    
[hls @ 0x55ab39285980] Opening '/data/transcodes/e227f2caf597d749341da7857d0db70f1.ts' for writing
frame=  169 fps= 31 q=28.0 size=N/A time=00:00:07.04 bitrate=N/A speed=1.31x    
frame=  185 fps= 31 q=28.0 size=N/A time=00:00:07.71 bitrate=N/A speed=1.31x    
frame=  203 fps= 31 q=28.0 size=N/A time=00:00:08.44 bitrate=N/A speed=1.29x    
frame=  217 fps= 31 q=28.0 size=N/A time=00:00:09.02 bitrate=N/A speed=1.27x    
frame=  229 fps= 30 q=28.0 size=N/A time=00:00:09.53 bitrate=N/A speed=1.24x    
[hls @ 0x55ab39285980] Opening '/data/transcodes/e227f2caf597d749341da7857d0db70f2.ts' for writing
frame=  241 fps= 29 q=28.0 size=N/A time=00:00:10.04 bitrate=N/A speed=1.22x    
frame=  253 fps= 29 q=28.0 size=N/A time=00:00:10.52 bitrate=N/A speed= 1.2x    
frame=  265 fps= 29 q=30.0 size=N/A time=00:00:11.04 bitrate=N/A speed=1.19x    
frame=  277 fps= 28 q=28.0 size=N/A time=00:00:11.52 bitrate=N/A speed=1.17x    
frame=  291 fps= 28 q=30.0 size=N/A time=00:00:12.12 bitrate=N/A speed=1.17x    
frame=  303 fps= 28 q=30.0 size=N/A time=00:00:12.60 bitrate=N/A speed=1.16x    
[hls @ 0x55ab39285980] Opening '/data/transcodes/e227f2caf597d749341da7857d0db70f3.ts' for writing
frame=  321 fps= 28 q=28.0 size=N/A time=00:00:13.37 bitrate=N/A speed=1.17x    
frame=  349 fps= 29 q=28.0 size=N/A time=00:00:14.52 bitrate=N/A speed=1.22x    
[hls @ 0x55ab39285980] Opening '/data/transcodes/e227f2caf597d749341da7857d0db70f4.ts' for writing
frame=  386 fps= 31 q=28.0 size=N/A time=00:00:16.09 bitrate=N/A speed=1.29x    
frame=  420 fps= 32 q=28.0 size=N/A time=00:00:17.50 bitrate=N/A speed=1.35x    
frame=  446 fps= 33 q=28.0 size=N/A time=00:00:18.59 bitrate=N/A speed=1.38x    
[hls @ 0x55ab39285980] Opening '/data/transcodes/e227f2caf597d749341da7857d0db70f5.ts' for writing
frame=  481 fps= 34 q=28.0 size=N/A time=00:00:20.03 bitrate=N/A speed=1.43x    
frame=  519 fps= 36 q=28.0 size=N/A time=00:00:21.63 bitrate=N/A speed=1.49x    
[hls @ 0x55ab39285980] Opening '/data/transcodes/e227f2caf597d749341da7857d0db70f6.ts' for writing
frame=  548 fps= 37 q=28.0 size=N/A time=00:00:22.84 bitrate=N/A speed=1.52x    
frame=  575 fps= 37 q=28.0 size=N/A time=00:00:23.96 bitrate=N/A speed=1.55x    
[hls @ 0x55ab39285980] Opening '/data/transcodes/e227f2caf597d749341da7857d0db70f7.ts' for writing
frame=  622 fps= 39 q=28.0 size=N/A time=00:00:25.92 bitrate=N/A speed=1.62x    
[hls @ 0x55ab39285980] Opening '/data/transcodes/e227f2caf597d749341da7857d0db70f8.ts' for writing
frame=  674 fps= 41 q=28.0 size=N/A time=00:00:28.09 bitrate=N/A speed= 1.7x    
frame=  710 fps= 42 q=28.0 size=N/A time=00:00:29.60 bitrate=N/A speed=1.74x    
[hls @ 0x55ab39285980] Opening '/data/transcodes/e227f2caf597d749341da7857d0db70f9.ts' for writing
frame=  751 fps= 43 q=28.0 size=N/A time=00:00:31.29 bitrate=N/A speed=1.78x    
frame=  781 fps= 43 q=28.0 size=N/A time=00:00:32.54 bitrate=N/A speed= 1.8x    
[hls @ 0x55ab39285980] Opening '/data/transcodes/e227f2caf597d749341da7857d0db70f10.ts' for writing
frame=  819 fps= 44 q=28.0 size=N/A time=00:00:34.14 bitrate=N/A speed=1.84x    
frame=  860 fps= 45 q=28.0 size=N/A time=00:00:35.84 bitrate=N/A speed=1.88x    
[hls @ 0x55ab39285980] Opening '/data/transcodes/e227f2caf597d749341da7857d0db70f11.ts' for writing
frame=  895 fps= 46 q=28.0 size=N/A time=00:00:37.31 bitrate=N/A speed=1.91x    
frame=  933 fps= 46 q=28.0 size=N/A time=00:00:38.88 bitrate=N/A speed=1.94x    
[hls @ 0x55ab39285980] Opening '/data/transcodes/e227f2caf597d749341da7857d0db70f12.ts' for writing
frame=  971 fps= 47 q=28.0 size=N/A time=00:00:40.48 bitrate=N/A speed=1.96x    
frame= 1004 fps= 48 q=28.0 size=N/A time=00:00:41.85 bitrate=N/A speed=1.98x    
[hls @ 0x55ab39285980] Opening '/data/transcodes/e227f2caf597d749341da7857d0db70f13.ts' for writing
frame= 1039 fps= 48 q=28.0 size=N/A time=00:00:43.32 bitrate=N/A speed=   2x    
frame= 1076 fps= 49 q=28.0 size=N/A time=00:00:44.86 bitrate=N/A speed=2.03x    
[hls @ 0x55ab39285980] Opening '/data/transcodes/e227f2caf597d749341da7857d0db70f14.ts' for writing
frame= 1114 fps= 49 q=28.0 size=N/A time=00:00:46.43 bitrate=N/A speed=2.05x    
frame= 1149 fps= 50 q=28.0 size=N/A time=00:00:47.90 bitrate=N/A speed=2.07x    
[hls @ 0x55ab39285980] Opening '/data/transcodes/e227f2caf597d749341da7857d0db70f15.ts' for writing
frame= 1183 fps= 50 q=28.0 size=N/A time=00:00:49.31 bitrate=N/A speed=2.08x    
frame= 1224 fps= 51 q=28.0 size=N/A time=00:00:51.04 bitrate=N/A speed=2.11x    
[hls @ 0x55ab39285980] Opening '/data/transcodes/e227f2caf597d749341da7857d0db70f16.ts' for writing
frame= 1263 fps= 51 q=28.0 size=N/A time=00:00:52.67 bitrate=N/A speed=2.13x    
frame= 1297 fps= 52 q=28.0 size=N/A time=00:00:54.08 bitrate=N/A speed=2.15x    
[hls @ 0x55ab39285980] Opening '/data/transcodes/e227f2caf597d749341da7857d0db70f17.ts' for writing
frame= 1333 fps= 52 q=28.0 size=N/A time=00:00:55.58 bitrate=N/A speed=2.16x    
frame= 1368 fps= 52 q=28.0 size=N/A time=00:00:57.02 bitrate=N/A speed=2.18x    
[hls @ 0x55ab39285980] Opening '/data/transcodes/e227f2caf597d749341da7857d0db70f18.ts' for writing
frame= 1396 fps= 52 q=28.0 size=N/A time=00:00:58.20 bitrate=N/A speed=2.18x    
frame= 1422 fps= 52 q=28.0 size=N/A time=00:00:59.29 bitrate=N/A speed=2.18x    
frame= 1450 fps= 52 q=28.0 size=N/A time=00:01:00.44 bitrate=N/A speed=2.18x    
[hls @ 0x55ab39285980] Opening '/data/transcodes/e227f2caf597d749341da7857d0db70f19.ts' for writing


[q] command received. Exiting.

[hls @ 0x55ab39285980] Opening '/data/transcodes/e227f2caf597d749341da7857d0db70f20.ts' for writing
frame= 1479 fps= 52 q=-1.0 Lsize=N/A time=00:01:01.63 bitrate=N/A speed=2.17x    
video:9625kB audio:3379kB subtitle:0kB other streams:0kB global headers:0kB muxing overhead: unknown
[libx264 @ 0x55ab39286900] frame I:21    Avg QP:14.78  size: 44678
[libx264 @ 0x55ab39286900] frame P:411   Avg QP:18.48  size: 10306
[libx264 @ 0x55ab39286900] frame B:1047  Avg QP:21.28  size:  4472
[libx264 @ 0x55ab39286900] consecutive B-frames:  3.5%  3.8%  7.5% 85.2%
[libx264 @ 0x55ab39286900] mb I  I16..4: 89.6%  0.0% 10.4%
[libx264 @ 0x55ab39286900] mb P  I16..4: 26.6%  0.0%  0.0%  P16..4: 12.6%  0.0%  0.0%  0.0%  0.0%    skip:60.8%
[libx264 @ 0x55ab39286900] mb B  I16..4:  4.0%  0.0%  0.0%  B16..8:  8.2%  0.0%  0.0%  direct: 6.1%  skip:81.7%  L0:43.7% L1:45.1% BI:11.2%
[libx264 @ 0x55ab39286900] coded y,uvDC,uvAC intra: 19.0% 27.4% 3.7% inter: 2.5% 8.2% 0.0%
[libx264 @ 0x55ab39286900] i16 v,h,dc,p: 49% 20% 15% 16%
[libx264 @ 0x55ab39286900] i4 v,h,dc,ddl,ddr,vr,hd,vl,hu: 20% 26% 20%  8%  6%  4%  6%  3%  6%
[libx264 @ 0x55ab39286900] i8c dc,h,v,p: 58% 19% 18%  5%
[libx264 @ 0x55ab39286900] Weighted P-Frames: Y:12.7% UV:4.6%
[libx264 @ 0x55ab39286900] kb/s:1278.16